<svg width="30.000000" height="30.000000" viewBox="0 0 30 30" fill="none" xmlns="http://www.w3.org/2000/svg" xmlns:xlink="http://www.w3.org/1999/xlink">
	<desc>
			Created with Pixso.
	</desc>
	<defs/>
	<rect id="Rectangle 3972" rx="15.000000" width="30.000000" height="30.000000" fill="#F3F3F3" fill-opacity="1.000000"/>
	<path id="f" d="M18.25 16.2L18.64 13.64L16.21 13.64L16.21 11.98C16.21 11.28 16.55 10.6 17.64 10.6L18.75 10.6L18.75 8.42C18.75 8.42 17.74 8.25 16.78 8.25C14.78 8.25 13.47 9.47 13.47 11.69L13.47 13.64L11.25 13.64L11.25 16.2L13.47 16.2L13.47 22.39C13.92 22.46 14.38 22.5 14.84 22.5C15.31 22.5 15.76 22.46 16.21 22.39L16.21 16.2L18.25 16.2Z" fill="#3B599C" fill-opacity="1.000000" fill-rule="nonzero"/>
</svg>
