<svg width="30.000000" height="30.000000" viewBox="0 0 30 30" fill="none" xmlns="http://www.w3.org/2000/svg" xmlns:xlink="http://www.w3.org/1999/xlink">
	<desc>
			Created with Pixso.
	</desc>
	<defs>
		<linearGradient id="paint_linear_0_150_0" x1="15.375000" y1="8.250000" x2="15.375000" y2="22.500000" gradientUnits="userSpaceOnUse">
			<stop offset="0.062500" stop-color="#D82D7E"/>
			<stop offset="1.000000" stop-color="#FBA756"/>
		</linearGradient>
	</defs>
	<rect id="Rectangle 3974" rx="15.000000" width="30.000000" height="30.000000" fill="#F3F3F3" fill-opacity="1.000000"/>
	<path id="instagram" d="M8.71 10.58C8.25 11.49 8.25 12.69 8.25 15.09L8.25 15.66C8.25 18.05 8.25 19.25 8.71 20.16C9.12 20.97 9.77 21.62 10.58 22.03C11.49 22.5 12.69 22.5 15.09 22.5L15.66 22.5C18.05 22.5 19.25 22.5 20.16 22.03C20.97 21.62 21.62 20.97 22.03 20.16C22.5 19.25 22.5 18.05 22.5 15.66L22.5 15.09C22.5 12.69 22.5 11.49 22.03 10.58C21.62 9.77 20.97 9.12 20.16 8.71C19.25 8.25 18.05 8.25 15.66 8.25L15.09 8.25C12.69 8.25 11.49 8.25 10.58 8.71C9.77 9.12 9.12 9.77 8.71 10.58ZM15.66 9.67L15.09 9.67C13.86 9.67 13.03 9.67 12.39 9.72C11.77 9.77 11.45 9.87 11.23 9.98C10.69 10.25 10.25 10.69 9.98 11.23C9.87 11.45 9.77 11.77 9.72 12.39C9.67 13.03 9.67 13.86 9.67 15.09L9.67 15.66C9.67 16.88 9.67 17.71 9.72 18.35C9.77 18.97 9.87 19.29 9.98 19.51C10.25 20.05 10.69 20.49 11.23 20.76C11.45 20.87 11.77 20.97 12.39 21.02C13.03 21.07 13.86 21.07 15.09 21.07L15.66 21.07C16.88 21.07 17.71 21.07 18.35 21.02C18.97 20.97 19.29 20.87 19.51 20.76C20.05 20.49 20.49 20.05 20.76 19.51C20.87 19.29 20.97 18.97 21.02 18.35C21.07 17.71 21.07 16.88 21.07 15.66L21.07 15.09C21.07 13.86 21.07 13.03 21.02 12.39C20.97 11.77 20.87 11.45 20.76 11.23C20.49 10.69 20.05 10.25 19.51 9.98C19.29 9.87 18.97 9.77 18.35 9.72C17.71 9.67 16.88 9.67 15.66 9.67ZM20.36 11.45C20.36 12.04 19.88 12.52 19.29 12.52C18.7 12.52 18.22 12.04 18.22 11.45C18.22 10.86 18.7 10.38 19.29 10.38C19.88 10.38 20.36 10.86 20.36 11.45ZM15.37 18.93C17.34 18.93 18.93 17.34 18.93 15.37C18.93 13.4 17.34 11.81 15.37 11.81C13.4 11.81 11.81 13.4 11.81 15.37C11.81 17.34 13.4 18.93 15.37 18.93ZM15.37 17.51C16.55 17.51 17.51 16.55 17.51 15.37C17.51 14.19 16.55 13.23 15.37 13.23C14.19 13.23 13.23 14.19 13.23 15.37C13.23 16.55 14.19 17.51 15.37 17.51Z" fill="url(#paint_linear_0_150_0)" fill-opacity="1.000000" fill-rule="evenodd"/>
</svg>
