<svg width="30.000000" height="30.000000" viewBox="0 0 30 30" fill="none" xmlns="http://www.w3.org/2000/svg" xmlns:xlink="http://www.w3.org/1999/xlink">
	<desc>
			Created with Pixso.
	</desc>
	<defs/>
	<rect id="Rectangle 3973" rx="15.000000" width="30.000000" height="30.000000" fill="#F3F3F3" fill-opacity="1.000000"/>
	<path id="twitter" d="M12.72 20.25C11.07 20.25 9.54 19.82 8.25 19.07C9.34 19.14 11.28 18.99 12.48 17.96C10.67 17.88 9.85 16.64 9.75 16.1C9.9 16.16 10.63 16.22 11.05 16.07C8.97 15.6 8.65 13.96 8.72 13.46C9.11 13.71 9.77 13.79 10.03 13.77C8.09 12.52 8.79 10.65 9.13 10.25C10.52 11.98 12.61 12.95 15.2 13C15.15 12.81 15.12 12.61 15.12 12.41C15.12 10.94 16.45 9.75 18.08 9.75C18.93 9.75 19.7 10.07 20.24 10.59C20.81 10.47 21.67 10.19 22.09 9.95C21.88 10.63 21.22 11.2 20.82 11.41C21.17 11.36 22.12 11.2 22.5 10.97C22.31 11.35 21.61 11.99 21.04 12.35C21.15 16.56 17.55 20.25 12.72 20.25Z" fill="#58A7DE" fill-opacity="1.000000" fill-rule="nonzero"/>
</svg>
